<svg xmlns="http://www.w3.org/2000/svg" width="1200" height="675" viewBox="0 0 1200 675" role="img" aria-label="SupplySense AI dashboard preview">
  <rect width="1200" height="675" fill="#f5f7f4"/>
  <path d="M0 0h1200v675H0z" fill="url(#grid)" opacity=".8"/>
  <rect x="52" y="42" width="1096" height="110" rx="8" fill="#fff" stroke="#d9e1d8"/>
  <text x="80" y="82" fill="#0d6f72" font-family="Segoe UI, Arial" font-size="16" font-weight="800">SUPPLY CHAIN AI</text>
  <text x="80" y="122" fill="#162019" font-family="Segoe UI, Arial" font-size="42" font-weight="800">SupplySense AI</text>
  <rect x="720" y="80" width="110" height="38" rx="8" fill="#fff" stroke="#d9e1d8"/>
  <rect x="844" y="80" width="124" height="38" rx="8" fill="#fff" stroke="#d9e1d8"/>
  <rect x="982" y="80" width="132" height="38" rx="8" fill="#fff" stroke="#d9e1d8"/>
  <text x="744" y="104" fill="#162019" font-family="Segoe UI, Arial" font-size="14" font-weight="700">Load Sample</text>
  <text x="869" y="104" fill="#162019" font-family="Segoe UI, Arial" font-size="14" font-weight="700">Optimize Model</text>
  <text x="1010" y="104" fill="#162019" font-family="Segoe UI, Arial" font-size="14" font-weight="700">Export PO CSV</text>
  <rect x="52" y="174" width="208" height="90" rx="8" fill="#fff" stroke="#d9e1d8"/>
  <rect x="274" y="174" width="208" height="90" rx="8" fill="#fff" stroke="#d9e1d8"/>
  <rect x="496" y="174" width="208" height="90" rx="8" fill="#fff" stroke="#d9e1d8"/>
  <rect x="718" y="174" width="208" height="90" rx="8" fill="#fff" stroke="#d9e1d8"/>
  <rect x="940" y="174" width="208" height="90" rx="8" fill="#fff" stroke="#d9e1d8"/>
  <text x="76" y="210" fill="#5d6a61" font-family="Segoe UI, Arial" font-size="14" font-weight="700">Critical SKUs</text>
  <text x="76" y="244" fill="#162019" font-family="Segoe UI, Arial" font-size="32" font-weight="800">4</text>
  <text x="298" y="210" fill="#5d6a61" font-family="Segoe UI, Arial" font-size="14" font-weight="700">At Risk Value</text>
  <text x="298" y="244" fill="#162019" font-family="Segoe UI, Arial" font-size="32" font-weight="800">$5,129</text>
  <text x="520" y="210" fill="#5d6a61" font-family="Segoe UI, Arial" font-size="14" font-weight="700">Recommended Reorder</text>
  <text x="520" y="244" fill="#162019" font-family="Segoe UI, Arial" font-size="32" font-weight="800">$12,325</text>
  <rect x="52" y="288" width="1096" height="180" rx="8" fill="#fff" stroke="#d9e1d8"/>
  <text x="76" y="328" fill="#162019" font-family="Segoe UI, Arial" font-size="24" font-weight="800">Priority Queue</text>
  <line x1="52" x2="1148" y1="350" y2="350" stroke="#d9e1d8"/>
  <rect x="76" y="378" width="1048" height="42" fill="#edf2ea"/>
  <text x="96" y="405" fill="#162019" font-family="Segoe UI, Arial" font-size="14" font-weight="800">SKU-1003</text>
  <text x="230" y="405" fill="#162019" font-family="Segoe UI, Arial" font-size="14">N95 Respirator Box</text>
  <rect x="460" y="386" width="82" height="24" rx="12" fill="#b42318"/>
  <text x="480" y="403" fill="#fff" font-family="Segoe UI, Arial" font-size="12" font-weight="800">Critical</text>
  <text x="620" y="405" fill="#162019" font-family="Segoe UI, Arial" font-size="14">6.3 days cover</text>
  <text x="850" y="405" fill="#162019" font-family="Segoe UI, Arial" font-size="14">$2,844 reorder</text>
  <rect x="52" y="492" width="520" height="130" rx="8" fill="#fff" stroke="#d9e1d8"/>
  <text x="76" y="530" fill="#162019" font-family="Segoe UI, Arial" font-size="22" font-weight="800">Planner Brief</text>
  <text x="76" y="560" fill="#5d6a61" font-family="Segoe UI, Arial" font-size="15">Critical risk: days cover is below effective lead time.</text>
  <rect x="76" y="582" width="440" height="10" rx="5" fill="url(#risk)"/>
  <rect x="596" y="492" width="552" height="130" rx="8" fill="#fff" stroke="#d9e1d8"/>
  <text x="620" y="530" fill="#162019" font-family="Segoe UI, Arial" font-size="22" font-weight="800">Stockout Timeline</text>
  <path d="M640 590 L760 610 L880 610 L910 552 L1100 610" fill="none" stroke="#2457a6" stroke-width="5" stroke-linecap="round"/>
  <line x1="775" y1="548" x2="775" y2="615" stroke="#b42318" stroke-width="3" stroke-dasharray="5 5"/>
  <line x1="910" y1="548" x2="910" y2="615" stroke="#b86b00" stroke-width="3" stroke-dasharray="5 5"/>
  <defs>
    <pattern id="grid" width="72" height="72" patternUnits="userSpaceOnUse">
      <path d="M72 0H0v72" fill="none" stroke="#d9e1d8" stroke-width="1"/>
    </pattern>
    <linearGradient id="risk" x1="0" x2="1">
      <stop offset="0" stop-color="#1f7a4d"/>
      <stop offset=".55" stop-color="#b86b00"/>
      <stop offset="1" stop-color="#b42318"/>
    </linearGradient>
  </defs>
</svg>
